<?xml version="1.0" encoding="UTF-8" standalone="no"?>
<!-- Created with Inkscape (http://www.inkscape.org/) -->

<svg
   xmlns:dc="http://purl.org/dc/elements/1.1/"
   xmlns:cc="http://creativecommons.org/ns#"
   xmlns:rdf="http://www.w3.org/1999/02/22-rdf-syntax-ns#"
   xmlns:svg="http://www.w3.org/2000/svg"
   xmlns="http://www.w3.org/2000/svg"
   xmlns:sodipodi="http://sodipodi.sourceforge.net/DTD/sodipodi-0.dtd"
   xmlns:inkscape="http://www.inkscape.org/namespaces/inkscape"
   width="490.00003"
   height="490.00003"
   viewBox="0 0 490.00002 490.00002"
   id="svg2"
   version="1.1"
   inkscape:version="0.91 r13725"
   sodipodi:docname="Philippine Charity Sweepstakes Office (PCSO).svg">
  <defs
     id="defs4" />
  <sodipodi:namedview
     id="base"
     pagecolor="#ffffff"
     bordercolor="#666666"
     borderopacity="1.0"
     inkscape:pageopacity="0.0"
     inkscape:pageshadow="2"
     inkscape:zoom="0.24748737"
     inkscape:cx="216.037"
     inkscape:cy="419.51156"
     inkscape:document-units="px"
     inkscape:current-layer="layer1"
     showgrid="false"
     showguides="false"
     inkscape:snap-object-midpoints="true"
     fit-margin-top="0"
     fit-margin-left="0"
     fit-margin-right="0"
     fit-margin-bottom="0"
     units="px"
     inkscape:window-width="1366"
     inkscape:window-height="705"
     inkscape:window-x="-4"
     inkscape:window-y="-4"
     inkscape:window-maximized="1" />
  <metadata
     id="metadata7">
    <rdf:RDF>
      <cc:Work
         rdf:about="">
        <dc:format>image/svg+xml</dc:format>
        <dc:type
           rdf:resource="http://purl.org/dc/dcmitype/StillImage" />
        <dc:title></dc:title>
      </cc:Work>
    </rdf:RDF>
  </metadata>
  <g
     inkscape:label="Layer 1"
     inkscape:groupmode="layer"
     id="layer1"
     transform="translate(-50.718658,-168.78656)">
    <g
       id="g4429"
       transform="matrix(0.74728649,0,0,0.74728649,12.81729,166.48427)">
      <path
         sodipodi:nodetypes="cssssssssscsssssssc"
         inkscape:connector-curvature="0"
         id="path4317"
         d="m 362.06416,649.14568 c -8.33376,-0.65143 -29.92737,-2.67402 -25.99395,-2.87421 32.10671,-1.63402 94.50364,-35.59301 124.23538,-71.02389 15.46736,-18.43222 32.68572,-48.926 38.28519,-71.35185 8.88683,-35.59169 10.30351,-74.0273 -2.33341,-106.57142 -8.07906,-20.80616 -30.87401,-48.17234 -48.13914,-68.75013 -8.04654,-9.59043 -42.83479,-33.79937 -67.8977,-58.01293 -48.84468,-47.18937 -46.71486,-54.14577 -54.04709,-81.24271 -4.37312,-16.16129 -6.41115,-52.87039 -2.55484,-68.39451 9.07772,-36.543634 40.4262,-70.780617 76.68156,-94.705173 l 18.33649,-12.100065 19.01175,2.788359 c 63.42282,9.301907 139.44077,45.829904 183.7254,96.578159 75.8551,86.92665 95.71642,212.77432 59.49995,321.81433 -30.71092,92.46393 -105.93216,170.43326 -198.63084,201.20004 -28.65042,9.50909 -52.46211,12.63347 -75.10069,13.90099 -9.44492,0.52881 -19.7106,-0.33983 -23.04411,-0.0875 -3.3335,0.25238 -13.70019,-0.51604 -22.03395,-1.16751 z"
         style="fill:#ce1126;fill-opacity:1;stroke:none;stroke-width:10;stroke-linecap:round;stroke-linejoin:miter;stroke-miterlimit:4;stroke-dasharray:none;stroke-dashoffset:0;stroke-opacity:1" />
      <path
         sodipodi:nodetypes="ssssssssssssssssss"
         inkscape:connector-curvature="0"
         id="path4321"
         d="M 310.83911,642.97553 C 285.01575,637.40579 264.49517,629.93305 237.37532,616.68381 204.90892,600.82253 179.51743,583.87438 151.45662,555.9479 106.31571,511.02306 79.612742,457.87084 65.660636,393.07349 59.123086,362.71136 58.191164,299.89405 64.690461,269.62012 92.114726,141.87701 186.72238,45.720015 313.04186,18.346834 c 13.56986,-2.940562 30.88935,-6.683651 59.39804,-7.465759 21.66777,-0.594435 43.91212,3.720292 44.91892,3.644513 7.96653,-0.599621 -13.14616,7.484079 -21.34101,9.764648 -17.87283,4.973883 -43.35365,18.131549 -59.50041,28.807546 -29.34408,19.401889 -59.49981,51.286228 -72.04681,82.730668 -11.85636,29.71366 -15.83239,66.17478 -9.73836,101.12056 7.03427,40.33751 27.63125,69.40472 89.85962,127.26165 71.13989,66.14245 100.93829,94.09434 97.11686,155.12817 -1.0006,15.98124 -10.15155,30.00573 -15.12683,42.43091 -15.07053,37.63687 -38.4632,56.7941 -68.69203,74.23889 -10.00051,5.77121 -24.1893,10.60458 -25.85606,10.52257 -1.66675,-0.082 -11.59723,-1.48563 -21.19468,-3.55567 z"
         style="fill:#0038a8;fill-opacity:1;stroke:none;stroke-width:10;stroke-linecap:round;stroke-linejoin:miter;stroke-miterlimit:4;stroke-dasharray:none;stroke-dashoffset:0;stroke-opacity:1" />
      <path
         sodipodi:nodetypes="cscccsacc"
         inkscape:connector-curvature="0"
         id="path4147-4"
         d="m 184.94231,78.493911 c -26.82297,91.076139 20.50095,158.900929 84.40529,194.988539 59.22387,33.44448 146.55432,-9.3441 203.78033,10.37201 97.2745,18.91849 171.2901,126.98662 130.30967,251.52799 -7.66926,22.9113 -33.31708,50.07127 -33.31708,50.07127 0,0 8.98489,-28.59256 11.285,-45.12511 5.38234,-38.68672 -5.99298,-81.60766 -33.43964,-106.93568 C 470.43043,361.84255 345.19129,412.1906 239.27762,363.44731 130.4589,298.69929 116.48799,179.00847 184.94231,78.493911 Z"
         style="fill:#ffffff;fill-opacity:1;fill-rule:evenodd;stroke:none;stroke-width:0.30000001;stroke-linecap:butt;stroke-linejoin:miter;stroke-miterlimit:4;stroke-dasharray:none;stroke-opacity:1" />
      <path
         sodipodi:nodetypes="cscccsscc"
         inkscape:connector-curvature="0"
         id="path4147-4-7"
         d="m 62.56191,290.0013 c 45.43385,83.36726 123.22333,112.09372 197.56127,78.19416 21.94825,-10.00884 97.02228,-110.23683 151.42857,-136.76033 82.16085,-55.40607 210.91349,-31.32729 270,85.71429 10.77775,21.62372 11.847,58.96447 11.847,58.96447 0,0 -13.86472,-26.57127 -23.92857,-39.88797 C 645.92043,305.06439 588.76082,286.10564 570.20984,284.25637 443.77628,271.65276 411.83424,412.64735 302.47525,453.07291 179.74504,484.2356 85.23192,409.48034 62.56191,290.0013 Z"
         style="fill:#ffffff;fill-opacity:1;fill-rule:evenodd;stroke:none;stroke-width:0.30000001;stroke-linecap:butt;stroke-linejoin:miter;stroke-miterlimit:4;stroke-dasharray:none;stroke-opacity:1" />
      <path
         sodipodi:nodetypes="cscccsscc"
         inkscape:connector-curvature="0"
         id="path4147-4-7-8"
         d="m 125.54052,525.21588 c 91.07613,26.82297 166.39427,-7.86983 194.98853,-84.4053 8.44243,-22.59707 -9.34409,-146.55431 10.37202,-203.78032 18.91848,-97.2745 126.98662,-171.290096 251.52797,-130.30968 22.9113,7.66926 50.07128,33.31708 50.07128,33.31708 0,0 -28.59257,-8.98488 -45.12511,-11.285 -38.68672,-5.38234 -92.51052,21.62975 -106.93568,33.43965 C 382.12541,242.68224 459.2372,364.96689 410.4939,470.88057 345.74589,579.69928 226.05507,593.6702 125.54052,525.21588 Z"
         style="fill:#ffffff;fill-opacity:1;fill-rule:evenodd;stroke:none;stroke-width:0.30000001;stroke-linecap:butt;stroke-linejoin:miter;stroke-miterlimit:4;stroke-dasharray:none;stroke-opacity:1" />
      <circle
         r="322.85284"
         cy="330.93372"
         cx="378.5715"
         id="path4149"
         style="fill:none;fill-opacity:1;stroke:#fcd116;stroke-width:10;stroke-linecap:round;stroke-linejoin:miter;stroke-miterlimit:4;stroke-dasharray:none;stroke-dashoffset:0;stroke-opacity:1" />
      <path
         sodipodi:nodetypes="cscccsssc"
         inkscape:connector-curvature="0"
         id="path4147"
         d="M 420.15689,15.515294 C 336.78963,60.949145 308.06317,138.73863 341.96273,213.07657 c 10.00884,21.94826 110.23683,97.02228 136.76033,151.42857 55.40607,82.16085 31.32729,210.91349 -85.71429,270 -21.62372,10.77775 -58.96447,11.847 -58.96447,11.847 0,0 26.57127,-13.86472 39.88797,-23.92857 31.16153,-23.54975 50.12028,-80.70936 51.96955,-99.26034 C 438.50543,396.72967 291.45049,366.8407 257.08528,255.42864 219.76284,134.42925 300.67785,38.185306 420.15689,15.515294 Z"
         style="fill:#fcd116;fill-opacity:1;fill-rule:evenodd;stroke:none;stroke-width:0.30000001;stroke-linecap:butt;stroke-linejoin:miter;stroke-miterlimit:4;stroke-dasharray:none;stroke-opacity:1" />
    </g>
  </g>
</svg>
